<mxfile host="app.diagrams.net" modified="2023-11-30T08:11:43.804Z" agent="Mozilla/5.0 (Windows NT 10.0; Win64; x64; rv:109.0) Gecko/20100101 Firefox/119.0" etag="JUb4thXTcv4kqsYmAuFL" version="22.1.5" type="github">
  <diagram name="第 1 页" id="r2tXutRJMJ_TncnxQ6NY">
    <mxGraphModel dx="639" dy="569" grid="0" gridSize="10" guides="1" tooltips="1" connect="1" arrows="1" fold="1" page="0" pageScale="1" pageWidth="827" pageHeight="1169" math="0" shadow="0">
      <root>
        <mxCell id="0" />
        <mxCell id="1" parent="0" />
        <mxCell id="j8RAuDSu79F2Eb5KRoHp-1" value="" style="rounded=0;whiteSpace=wrap;html=1;fontFamily=Times New Roman;fillColor=#dae8fc;strokeColor=#6c8ebf;" vertex="1" parent="1">
          <mxGeometry x="310" y="120" width="50" height="380" as="geometry" />
        </mxCell>
        <mxCell id="j8RAuDSu79F2Eb5KRoHp-2" value="" style="rounded=0;whiteSpace=wrap;html=1;fontFamily=Times New Roman;fillColor=#d5e8d4;strokeColor=#82b366;" vertex="1" parent="1">
          <mxGeometry x="510" y="120" width="50" height="380" as="geometry" />
        </mxCell>
        <mxCell id="j8RAuDSu79F2Eb5KRoHp-3" value="&lt;div&gt;stream 0&lt;/div&gt;" style="text;html=1;align=center;verticalAlign=middle;resizable=0;points=[];autosize=1;strokeColor=none;fillColor=none;fontFamily=Times New Roman;" vertex="1" parent="1">
          <mxGeometry x="295" y="68" width="60" height="30" as="geometry" />
        </mxCell>
        <mxCell id="j8RAuDSu79F2Eb5KRoHp-4" value="&lt;div&gt;stream 1&lt;br&gt;&lt;/div&gt;" style="text;html=1;align=center;verticalAlign=middle;resizable=0;points=[];autosize=1;strokeColor=none;fillColor=none;fontFamily=Times New Roman;" vertex="1" parent="1">
          <mxGeometry x="495" y="68" width="60" height="30" as="geometry" />
        </mxCell>
        <mxCell id="j8RAuDSu79F2Eb5KRoHp-5" value="wait event" style="rounded=0;whiteSpace=wrap;html=1;fontFamily=Times New Roman;" vertex="1" parent="1">
          <mxGeometry x="310" y="240" width="50" height="40" as="geometry" />
        </mxCell>
        <mxCell id="j8RAuDSu79F2Eb5KRoHp-9" value="&lt;div&gt;kernel&lt;/div&gt;" style="rounded=0;whiteSpace=wrap;html=1;fontFamily=Times New Roman;" vertex="1" parent="1">
          <mxGeometry x="310" y="279" width="50" height="30" as="geometry" />
        </mxCell>
        <mxCell id="j8RAuDSu79F2Eb5KRoHp-10" value="copy" style="rounded=0;whiteSpace=wrap;html=1;fontFamily=Times New Roman;" vertex="1" parent="1">
          <mxGeometry x="310" y="210" width="50" height="30" as="geometry" />
        </mxCell>
        <mxCell id="j8RAuDSu79F2Eb5KRoHp-11" value="signal event" style="rounded=0;whiteSpace=wrap;html=1;fontFamily=Times New Roman;" vertex="1" parent="1">
          <mxGeometry x="510" y="210" width="50" height="30" as="geometry" />
        </mxCell>
        <mxCell id="j8RAuDSu79F2Eb5KRoHp-13" value="&lt;div&gt;kernel&lt;/div&gt;" style="rounded=0;whiteSpace=wrap;html=1;fontFamily=Times New Roman;" vertex="1" parent="1">
          <mxGeometry x="510" y="180" width="50" height="30" as="geometry" />
        </mxCell>
        <mxCell id="j8RAuDSu79F2Eb5KRoHp-16" value="&lt;div&gt;cudaStreamWaitEvent&lt;/div&gt;" style="text;html=1;align=center;verticalAlign=middle;resizable=0;points=[];autosize=1;strokeColor=none;fillColor=none;fontFamily=Times New Roman;" vertex="1" parent="1">
          <mxGeometry x="105" y="221" width="130" height="30" as="geometry" />
        </mxCell>
        <mxCell id="j8RAuDSu79F2Eb5KRoHp-17" value="" style="endArrow=classic;html=1;rounded=0;entryX=0;entryY=0;entryDx=0;entryDy=0;fontFamily=Times New Roman;" edge="1" parent="1" target="j8RAuDSu79F2Eb5KRoHp-5">
          <mxGeometry width="50" height="50" relative="1" as="geometry">
            <mxPoint x="240" y="240" as="sourcePoint" />
            <mxPoint x="300" y="240" as="targetPoint" />
          </mxGeometry>
        </mxCell>
        <mxCell id="j8RAuDSu79F2Eb5KRoHp-18" value="cudaMemcpy" style="text;html=1;align=center;verticalAlign=middle;resizable=0;points=[];autosize=1;strokeColor=none;fillColor=none;fontFamily=Times New Roman;" vertex="1" parent="1">
          <mxGeometry x="149" y="184" width="90" height="30" as="geometry" />
        </mxCell>
        <mxCell id="j8RAuDSu79F2Eb5KRoHp-19" value="" style="endArrow=classic;html=1;rounded=0;entryX=0;entryY=0;entryDx=0;entryDy=0;fontFamily=Times New Roman;" edge="1" parent="1">
          <mxGeometry width="50" height="50" relative="1" as="geometry">
            <mxPoint x="240" y="210" as="sourcePoint" />
            <mxPoint x="310" y="210" as="targetPoint" />
          </mxGeometry>
        </mxCell>
        <mxCell id="j8RAuDSu79F2Eb5KRoHp-20" value="cudaLaunchKernel" style="text;html=1;align=center;verticalAlign=middle;resizable=0;points=[];autosize=1;strokeColor=none;fillColor=none;fontFamily=Times New Roman;" vertex="1" parent="1">
          <mxGeometry x="123" y="261" width="110" height="30" as="geometry" />
        </mxCell>
        <mxCell id="j8RAuDSu79F2Eb5KRoHp-21" value="" style="endArrow=classic;html=1;rounded=0;entryX=0;entryY=0;entryDx=0;entryDy=0;fontFamily=Times New Roman;" edge="1" parent="1">
          <mxGeometry width="50" height="50" relative="1" as="geometry">
            <mxPoint x="240" y="280" as="sourcePoint" />
            <mxPoint x="310" y="280" as="targetPoint" />
          </mxGeometry>
        </mxCell>
        <mxCell id="j8RAuDSu79F2Eb5KRoHp-22" value="" style="endArrow=classic;html=1;rounded=0;exitX=0;exitY=0;exitDx=0;exitDy=0;entryX=1;entryY=1;entryDx=0;entryDy=0;" edge="1" parent="1" source="j8RAuDSu79F2Eb5KRoHp-11" target="j8RAuDSu79F2Eb5KRoHp-5">
          <mxGeometry width="50" height="50" relative="1" as="geometry">
            <mxPoint x="319" y="362" as="sourcePoint" />
            <mxPoint x="228" y="369" as="targetPoint" />
          </mxGeometry>
        </mxCell>
        <mxCell id="j8RAuDSu79F2Eb5KRoHp-24" value="&lt;div&gt;block stream0&lt;/div&gt;" style="edgeLabel;html=1;align=center;verticalAlign=middle;resizable=0;points=[];fontFamily=Times New Roman;" vertex="1" connectable="0" parent="j8RAuDSu79F2Eb5KRoHp-22">
          <mxGeometry x="-0.0737" relative="1" as="geometry">
            <mxPoint as="offset" />
          </mxGeometry>
        </mxCell>
      </root>
    </mxGraphModel>
  </diagram>
</mxfile>
